<?xml version="1.0" encoding="UTF-8"?><svg id="Layer_1" xmlns="http://www.w3.org/2000/svg" viewBox="0 0 283.5 109.6"><path d="M52.1,108.8c21.6,0,39.1-17.5,39.1-39.1S73.7,30.7,52.1,30.7,13,48.2,13,69.8s17.5,39.1,39.1,39.1h0Z" fill="none" stroke="#fff" stroke-miterlimit="10" stroke-width="1.4"/><path d="M104.2,69.8V.3H0V69.8H5.2c0-25.9,21-46.9,46.9-46.9s46.9,21,46.9,46.9h5.2Z" fill="#fff"/><path d="M115.7,17.9h4.9v-6.3h3.2c.9,0,3.1,0,4.4-.8,.7-.4,2.7-1.7,2.7-4.8s-1-3.9-2.5-4.8c-1.4-.9-3.2-.9-4.6-.9h-8.1V17.9h0Zm4.9-14.3h2.1c1.4,0,3.1,.1,3.1,2.3s-1.9,2.4-3.1,2.4h-2.2V3.6h0Z" fill="#fff"/><path d="M132.7,17.9h2.5l1.9-4.6h8.2l1.9,4.6h2.7L142.7,.3h-2.6l-7.4,17.6h0Zm8.6-15.2l3.2,8.6h-6.6l3.4-8.6h0Zm11.8,15.2h2.4v-7.9h3.1c2.9,0,3.6,.7,3.8,3.3,.2,1.3,.4,3.5,.8,4.6h2.6c-.7-1.9-.9-3.5-1.1-5.5-.2-2.2-1-2.9-2.7-3.4,.5-.1,1.3-.4,2.1-1.1,.8-.8,1.2-1.9,1.2-3.1s-.6-2.8-1.9-3.6c-1.3-.8-3.1-.8-4-.8h-6.3V17.9h0Zm2.4-15.5h3.8c1,0,3.5,0,3.5,2.8s-.9,2.1-1.2,2.3c-.7,.4-2,.4-2.3,.4h-3.8V2.4h0Zm14.9,15.5h2.4V.3h-2.4V17.9h0Zm7-5.1c0,.9,0,2.3,1,3.6,1.4,1.8,4.1,2,5.5,2,4.5,0,6.9-2.4,6.9-5.5s-.1-2.4-1.8-3.5c-1-.7-1.5-.8-5.7-1.8-2.1-.5-3.2-1-3.2-2.6s1.5-2.8,3.9-2.8,3.6,.5,3.7,2.7h2.5c0-.7,0-1.9-1.1-3-1.4-1.5-3.8-1.7-4.9-1.7-3.3,0-6.7,1.6-6.7,5.1s.4,2.5,1.8,3.5c.9,.6,2.1,.9,4.8,1.6,2.5,.6,4,1,4,3s-.5,3.1-4.1,3.1-4.2-2.3-4.2-3.5h-2.5Z" fill="#fff"/><polygon points="115.5 47.1 128.4 47.1 128.4 43.7 120.5 43.7 120.5 29.5 115.5 29.5 115.5 47.1 115.5 47.1" fill="#fff"/><path d="M131.2,38.5c0,4.8,1.9,9.1,7.9,9.1s8.1-4.7,8.1-9.4-3.1-9.1-7.9-9.1-4,.4-5.9,2.4c-1.9,2.1-2.3,5-2.3,7h0Zm2.6-.1c0-3.6,1.1-7.2,5.6-7.2s5.3,3,5.3,7-.1,4-1.6,5.7c-1,1.2-2.5,1.6-3.9,1.6s-2.9-.4-3.9-1.6c-1.2-1.5-1.6-3.6-1.6-5.5h0Zm18.1,8.8h4.9c2.6,0,4.7,0,6.5-1.4,1.3-1.1,2.9-3.4,2.9-7.2s-.6-4.8-2.2-6.6c-1.9-2.3-4.7-2.3-7.1-2.3h-5.1v17.6h0Zm2.4-15.6h2.9c2.1,0,3.6,.3,4.7,1.5,1.7,1.8,1.7,4.8,1.7,5.5,0,1,0,3.9-2.3,5.6-1.2,.9-2.9,1-4.6,1h-2.4v-13.6h0Zm16.1,15.6h2.4v-7.9h3.1c2.9,0,3.6,.7,3.8,3.3,.2,1.3,.4,3.5,.8,4.6h2.6c-.7-1.9-.9-3.5-1.1-5.5-.2-2.2-1-2.9-2.7-3.4,.5-.1,1.3-.4,2.1-1.1,.8-.8,1.2-1.9,1.2-3.1s-.6-2.8-1.9-3.6c-1.3-.8-3.1-.8-4-.8h-6.3v17.6h0Zm2.4-15.5h3.8c1,0,3.5,0,3.5,2.8s-.9,2.1-1.2,2.3c-.7,.4-2,.4-2.3,.4h-3.8v-5.5h0Zm14.2,6.9c0,4.8,1.9,9.1,7.9,9.1s8.1-4.7,8.1-9.4-3.1-9.1-7.9-9.1-4,.4-5.9,2.4c-1.9,2.1-2.3,5-2.3,7h0Zm2.6-.1c0-3.6,1.1-7.2,5.6-7.2s5.3,3,5.3,7-.1,4-1.6,5.7c-1,1.2-2.5,1.6-3.9,1.6s-2.9-.4-3.9-1.6c-1.2-1.5-1.6-3.6-1.6-5.5h0Zm18.2,8.8h2.2v-14.9l8.9,14.9h3.1V29.5h-2.2v14.5l-8.6-14.5h-3.4v17.6h0Z" fill="#fff"/><path d="M115.7,58.8v10c0,2.9,0,8,8.3,8s5.4-.4,7.1-2.5c1.1-1.3,1.4-3.4,1.4-5.4v-10.2h-4.7v10.3c0,1.8-.4,4.3-3.5,4.3s-2.3-.5-3-1.4c-.5-.7-.6-1.7-.6-2.7v-10.4h-4.9Z" fill="#fff"/><path d="M137.5,76.3h2.2v-14.9l8.9,14.9h3.1v-17.6h-2.2v14.5l-8.6-14.5h-3.4v17.6h0Zm19.7,0h2.4v-17.6h-2.4v17.6h0Zm21.3-17.6h-2.5l-5.3,15-5-15h-2.7l6.3,17.6h2.7l6.5-17.6h0Zm3.3,17.6h11.2v-2.1h-8.8v-5.8h8.2v-2h-8.2v-5.5h8.6v-2.1h-11v17.6h0Zm16.1,0h2.4v-7.9h3.1c2.9,0,3.6,.7,3.8,3.3,.2,1.3,.4,3.5,.8,4.6h2.6c-.7-1.9-.9-3.5-1.1-5.5-.2-2.2-1-2.9-2.7-3.4,.5-.1,1.3-.4,2.1-1.1,.8-.8,1.2-1.9,1.2-3.1s-.6-2.8-1.9-3.6c-1.3-.8-3.1-.8-4-.8h-6.3v17.6h0Zm2.4-15.5h3.8c1,0,3.5,0,3.5,2.8s-.9,2.1-1.2,2.3c-.7,.4-2,.4-2.3,.4h-3.8v-5.5h0Zm14.1,10.4c0,.9,0,2.3,1,3.6,1.4,1.8,4.1,2,5.5,2,4.5,0,6.9-2.4,6.9-5.5s-.1-2.4-1.8-3.5c-1-.7-1.5-.8-5.7-1.8-2.1-.5-3.2-1-3.2-2.6s1.5-2.8,3.9-2.8,3.6,.5,3.7,2.7h2.5c0-.7,0-1.9-1.1-3-1.4-1.5-3.8-1.7-4.9-1.7-3.3,0-6.7,1.6-6.7,5.1s.4,2.5,1.8,3.5c.9,.6,2.1,.9,4.8,1.6,2.5,.6,4,1,4,3s-.5,3.1-4.1,3.1-4.2-2.3-4.2-3.5h-2.5Zm18,5.1h2.4v-17.6h-2.4v17.6h0Zm14.4,0v-15.5h5.9v-2.1h-14.2v2.1h5.9v15.5h2.4Zm5.4,0h2.5l1.9-4.6h8.2l1.9,4.6h2.7l-7.1-17.6h-2.6l-7.4,17.6h0Zm8.6-15.2l3.2,8.6h-6.6l3.4-8.6h0Zm-3.5-4.2h2.2v-2.5h-2.2v2.5h0Zm4.6,0h2.3v-2.5h-2.3v2.5h0Zm15.6,19.4v-15.5h5.9v-2.1h-14.2v2.1h5.9v15.5h2.4Z" fill="#fff"/><path d="M114.9,99.9c0,.8,0,2.5,1.3,3.9,1.6,1.8,4.6,2.1,6.4,2.1,4.4,0,7.8-1.8,7.8-5.7s-2.8-4.5-5.1-5.1l-3.3-.9c-.7-.2-1.8-.5-1.8-1.8s.9-1.8,2.3-1.8c2.3,0,2.3,1.9,2.3,2.4h4.9c0-1.9-.3-5.6-7.2-5.6s-7.4,2.7-7.4,5.5,3.1,4.5,4.4,4.8l4.3,1.1c1.2,.3,1.5,.9,1.5,1.7,0,2-2.2,2-2.6,2-2.9,0-2.9-2-3-2.7h-4.9Z" fill="#fff"/><path d="M132.7,105.5h2.5l1.9-4.6h8.2l1.9,4.6h2.7l-7.1-17.6h-2.6l-7.4,17.6h0Zm8.6-15.2l3.2,8.6h-6.6l3.4-8.6h0Zm12,15.2h10.6v-2.2h-8.2v-15.4h-2.4v17.6h0Zm13.1,0h13.2v-2.1h-10.4l10.2-13v-2.4h-12.8v2.1h9.9l-10.1,13v2.4h0Zm17.3,0h6.4c1.4,0,2.8,0,4-.8,.6-.4,2.1-1.6,2.1-4s-2.5-4.1-3.5-4.4c.9-.3,3-1.1,3-4s-.5-2.4-1.2-3.1c-1.1-1.1-2.3-1.3-4.4-1.3h-6.3v17.6h0Zm2.4-15.6h3.5c1.3,0,3.6,0,3.6,2.7s-2.8,2.8-3.7,2.8h-3.4v-5.4h0Zm0,7.5h4.3c2.1,0,3.4,1.3,3.4,3s-1.5,3-3.5,3h-4.2v-6.1h0Zm14.8-9.5v10.7c0,2.6,.5,3.7,1,4.4,1.6,2.3,4.6,2.8,6.2,2.8s3.9-.3,5.7-2.4c1.4-1.8,1.4-3.7,1.4-4.7v-10.8h-2.4v10.8c0,1.3,0,5-4.7,5s-2.9-.3-4-1.7c-.4-.5-.8-1.3-.8-3.2v-10.9h-2.4Zm19.7,17.6h2.4v-7.9h3.1c2.9,0,3.6,.7,3.8,3.3,.2,1.3,.4,3.5,.8,4.6h2.6c-.7-1.9-.9-3.5-1.1-5.5-.2-2.2-1-2.9-2.7-3.4,.5-.1,1.3-.4,2.1-1.1,.8-.8,1.2-1.9,1.2-3.1s-.6-2.8-1.9-3.6c-1.3-.8-3.1-.8-4-.8h-6.3v17.6h0Zm2.4-15.5h3.8c1,0,3.5,0,3.5,2.8s-.9,2.1-1.2,2.3c-.7,.4-2,.4-2.3,.4h-3.8v-5.5h0Zm29.5,2.3c0-.7-.1-1.7-1.2-2.8-1.7-1.7-3.8-1.9-5.2-1.9s-3.2,0-4.9,1.2c-3.3,2.2-3.8,6.4-3.8,8.1,0,2.5,.7,4.9,2.5,6.7,1.2,1.3,3.1,2.2,6.4,2.2s5.2-.7,6.3-1.1v-8.7h-6.4v2h4v5.2c-.6,.2-1.8,.6-3.8,.6s-3.5-.4-4.7-1.7c-1.3-1.5-1.6-4-1.6-5.5s.3-3.9,1.9-5.6c.9-1,2.3-1.5,4-1.5,2.4,0,3.7,1.1,4,2.8h2.7Z" fill="#fff"/><path d="M84,68.5h0c0-.3,0-.8,0-1.2,0,0-.2,0-.2-.1-.5,.4-.9,.9-1.1,1.5-.2,.8-.1,1.8-.1,1.8,0,0-.7-.7-.5-2.2,.1-.6,.3-1.1,.6-1.5-.7-.1-1.4-.1-2,0,0,0-.2,0-.2,0-.3,.6-.3,1.2,0,1.7,.2,.5,.6,1.1,.6,1.1,0,0-1-.2-1.4-1.2-.2-.4-.2-.8-.2-1.1-.6,.4-1,.9-1.3,1.5-.7,1.8-.2,3.2,.1,4,.3,.4,.8,1,1.6,1.3,.9,.4,1.7,.5,1.7,.5,0,0-.5,.3-1.7,.2-.6,0-1.2-.3-1.5-.6-.5,1.1-1.5,1.4-2.3,1.5-2.2,.2-4.9-1.6-7.3-3.5,0,0,0,0,0,0-1.4-1.1-2.7-2.3-3.5-3.2-.7-.8-1.5-1.9-1.5-1.9l1.6-1.8s.4,2,2.4,4.1c.6,.6,1,1.1,1.4,1.4,.3-1.7,.3-3.4,.3-3.4,1-.6,3.8-2.3,5.8-3.2,3.1-1.4,5.9-1.5,8.1-1.4-.3-1.4-.6-2.8-1.8-5.6-.8-1.9-1.9-3.8-2.8-5h0s0,0,0,0c0,0-.1-.2-.1-.2h0c0,0,0,0,0-.1-.3-.4-1.8-2.3-2.7-3.3-.3-.3-.6-.6-.9-.9,0,0,0,0,0,0h0c-.7-.7-1.4-1.4-1.5-1.5-.1-.1-.4-.4-.9-.8,0,0-.1,0-.2,0,0,.6,0,1.2,.3,1.7,.4,.8,1.1,1.4,1.1,1.4,0,0-1,0-1.8-1.3-.3-.4-.5-.9-.6-1.3-.6,.4-1.1,.9-1.4,1.4,0,0,0,.1,0,.2,.2,.5,.6,.9,1,1.1,.5,.2,1.2,.4,1.2,.4,0,0-.9,.5-1.8,.1-.3-.1-.5-.3-.7-.5-.1,.7-.1,1.4,.1,2.1,.4,1.2,1.4,2.1,2.7,2.5,.5,0,1.2,.1,2-.1,1-.3,1.5-.8,1.5-.8,0,0-.2,.6-1.1,1.3-.4,.3-.8,.4-1.1,.5,.6,1.3,.1,2.2-.5,2.8-1.2,1.3-3.7,2.2-6.6,2.3-.7-1-1.3-1.7-1.6-2,0,0-.2-.2-.3-.3-.1-.2-.9-.9-1.8-1.6-.3,.4-.7,.9-1.2,1.4-1,1-2.9,1.6-2.9,1.6,0,0-2.1-.4-3.8-1.6-.7-.5-1.6-1.4-1.9-2.1-1.2-1.6-.6-4.1-.6-4.1,0,0-.6,0-1.3-.4-1-.5-1.9-1.5-2.2-2.3-.3-1-.3-3.4,2.3-4.2,1.2-.3,1.7,.2,1.7,.2,0,0-1.8,0-2.5,1.3-.7,1.2-.3,2.3,.3,2.8,.8,.7,2.9,1,2.9,1,0,0-.6,2.2,0,3.6,.3,.7,1.6,2.1,2.9,2.7,.9,.4,1.6,.7,2.4,.9,1.3-.6,2.3-2,2.3-2.1,0,0,0,0,0,0,0,0,0,0,0-.1,.7-1,1.1-2.2,1.1-2.2h0s0,0,0,0c0,0-2.4-1.3-1.6-3,.6-1.2,2.3-.5,3,0l.9,.5,2.3-4.6s-3.1-1.4-4.7-2l.9-2.5-1.1-.4c-5.3-1.8-10.1-2-14.9-1.2-4.5,.8-8.3,3.3-10.4,6.9-2.1,3.7-2.4,8.7-.7,12.6,1.2,2.7,2.9,4.5,3.2,8.1,.2,2.7-1.1,5-2,7,.6,0,1.4,.2,1.4,.2,1,.1,2.8,.2,4.4,.3,1.1-1.1,2.6-3,3-5.7,.3-3-.8-5.4-1.7-6.9-.9-1.5-2.5-3.8-3.4-5.5-1.5-3-1.8-5.8-1-8.3,.5-1.6,1.5-2.9,2.7-3.9,1.1-.8,1.7-.9,2.7-1.2-1.7,1-3.1,2.6-3.7,4.6-.8,2.6-.5,5.3,1,8.3,.9,1.7,2.6,3.8,3.5,5.3,.9,1.6,2,4,1.9,6.7,0,1.8-.9,4.2-2,5.9-.3,.4-.4,.6-.5,.8,0,0,0,0,0,0-.9,1.2-3,3.4-6,4.5-3.1,1.2-6.5,1.2-8,.3,0,0-.1-.1-.2-.2,1.9-.2,3.8-1.3,4.5-3.4,.8-2.4-.1-4-1.6-5.3,2.2-3,2.4-6.7,.3-9-.3-.3-.6-.6-.9-.8,.7-3.1,.2-7.1-1.7-8.5-1-.7-2.2-1-3.3-.7-2.9,.8-4.8,4.2-5.7,6.2-.9,1.9-1.6,3.9-2.4,7.7-.7,3.2-.8,9.5,.6,13.9,.2,.7,.6,.6,.7,.3,0-1.6,.3-2.9,.6-3.9,.3-1.2,.7-2.1,1.1-2.7,1.1-1.9,2.1-5.8,.8-9.1-.5-1.2-.3-3.1,.5-5.1,1.1-2.3,2.9-4.8,4.5-5.3,.6-.1,1.1,0,1.6,.3,.7,.5,1.5,3.1,1,6-.4,0-.8-.1-1.1,0-1.3,0-2.5,.8-3.3,1.9-1.2,1.7-1.2,4.3,.7,6.6-1.6,2.3-2.9,4.5-2.5,7.2,.2,1.8,1.5,3.1,3.2,3.7,.3,.9,.8,1.6,1.6,2.1,1,.7,2.5,1.1,4.2,1.1s2-.1,3.1-.3c-.3,1.3-1.3,2.5-2.1,3-1.8,1.1-4.4,.9-6.7-1.3,0,0-.5-.5-.8-.8-1.4,1.5-2.5,4.3-2.5,6.2l1.2,1.7c4.9,6.2,10.2,9,14.5,10.6,0,0,0,0,0,0,0,0,1.9,.7,3.4,1.1,1.9,.5,3.8,.6,3.8,.6h0c0,0,.1-.2,.2-.3-.4-.7-.9-1.2-1.7-1.5-.8-.3-1.8-.3-1.8-.3,0,0,.8-.7,2.2-.3,.9,.2,1.5,.6,1.9,1,.3-.6,.4-1.2,.4-1.8,0,0,0-.1,0-.2,0,0-.2-.1-.2-.2-.8-.7-1.6-.8-2.2-.6-.5,.1-1.1,.5-1.1,.5,0,0,.3-1,1.3-1.3,.8-.3,1.5,0,2,0-.2-.5-.6-1-1-1.4-.8-.6-2.1-1.2-3.1-1.1-1.1,.1-1.5,.3-2.1,.7-.6,.4-1,.7-1.4,1.5-.5,.9-.6,1.7-.6,1.7,0,0-.3-.5-.1-1.7,.1-1,.8-1.7,1.1-1.9-1.2-.9-2.5-2.7-2.6-4,2.5,.7,5.1,.6,7.1-.1,.2,0,.4-.2,.6-.4,1.6-1.1,2.1-2,2.6-3.1,.8-1.9,1.3-4.9,.6-6.4-.6-1.4-3.1-3-3.1-3l1.8-.4s1,.6,1.6,1.3c.7,.7,1.4,1.4,1.4,1.4,0,0,1.2,1.5,2.5,1.9,1.2,.3,1.6,.3,2.7,.2,.4,0,.8-.1,1.3-.2,0,0,0,0,0,0,1.1-.3,2-.6,3-1.1-1.1-.5-2-1.3-2.8-2.2-1.5-1.7-2-4.8-2-4.8l1.8-.8s0,2.5,1.2,4.4c.7,1,1.4,1.9,2.9,2.7,1,.6,2.2,1,3,1.3,.6,.2,1.3,.3,1.7,.4,1.5,.3,2.5,.4,4.9,.4,.6,0,1.8,.1,2.5,.4,.8,.3,1.6,.8,2.4,1.5,.7,.6,1.6,2.1,1.9,3.1,.5-.6,1.7-2.6,2.9-5.6,.9-2.1,1.6-6,1.6-6,.1-.6,.4-2.5,.4-3.5,0-1,0-3.5,0-3.5h0Zm-54.3-.2c0,0,.1,0,.2,.1,.3,.2,.6,.4,.9,.6,.3,.2,.5,.4,.7,.5-1.1,1.6-2.4,3.7-2.7,5.8-.5-.3-.9-.8-1-1.6-.3-1.9,.6-3.5,2-5.4h0Zm1.6-8.1c0,.1,0,.2-.1,.3-.6,1.8-1,3.1-1.8,4.3-.9-1.4-.9-2.8-.3-3.7,.4-.6,1-.9,1.7-1,0,0,0,0,.1,0,.1,0,.2,0,.3,0h0Zm1.5,7.7c-.3-.2-.5-.4-.8-.5-.3-.2-.6-.4-.9-.6,0,0-.1,0-.2-.1,1.2-1.7,1.7-3.3,2.2-5,1.3,1.6,1.2,4.2-.4,6.3h0Zm-2,8.1c.2-1.5,1.2-3.4,2.4-5.1,1,.9,1.3,1.8,.9,3.1-.6,1.9-1.7,2-3.2,2h0Zm24.8-32s2,.2,3.2,.7c-1.8,.5-2.5,1.5-3.5,1.6-.1-.8,.3-2.3,.3-2.3h0Zm13.3,9.9c-1,.5-2.1,.3-2.5-.1-.4-.4-.5-.7-.7-1.2-.2-.5-.5-1-.8-1.5-.3-.5-.7-1-1.2-1.3-.5-.3-1.2-.6-1.6-.6-.4,0-.2,.2,0,.2,.2,0,.9,.6,1.2,.9,.3,.4,.5,.8,.6,1.3,.3,.9,.4,1.9,1,3.2,0,.2,.2,.3,.3,.5l.2,.2,.2,.2c.2,.3,.6,.5,.9,.7,.7,.4,1.7,.4,2.4,0,.8-.3,1.3-.9,1.6-1.6,.3-.6,.3-1.5,0-1.9-.2-.4-.7,.5-1.5,.9h0Zm-22.4,39.1c4.4,.8,6.6,3.8,7.7,8.7,7.6-.5,13.1-3.4,16.8-6.1h0s1.9-1.5,3.1-2.6c.4-.4,.9-.9,1.2-1.3,0,0,0,0,0,0,0,0,.6-.6,.9-1.1,0,0,0-.1,0-.2-.7,0-1.4,0-2.1,.3-.7,.4-1.4,1.2-1.4,1.2,0,0,0-1,1.2-1.9,.6-.4,1.2-.6,1.7-.7-.4-.6-.8-1.1-1.3-1.4,0,0-.1,0-.2,0-.9,.2-1.4,.6-1.7,1.2-.2,.5-.3,1.2-.3,1.2,0,0-.5-.9-.2-1.8,.2-.5,.5-.9,.9-1.1-.6-.1-1.2-.1-1.8,0-1.4,.4-2.8,1.4-3.2,3.8,0,.4,0,.9,.2,1.4,.4,.9,.9,1.5,.9,1.5,0,0-.6-.1-1.4-1-.3-.3-.4-.7-.5-1-1.4,.7-3.7,1.2-4.9,1.4-1.5,.2-2.6,.3-3.3-.1-.7-.4-1-.8-1.4-1.5-.5-.9-.3-2.4,0-3,.4-1.1,2.2-2.8,1.5-5,0-.3-.1-.5-.2-.7-.2,.1-.4,.2-.6,.3-2.5,.9-5.5-.2-5.5-.2,0,0-.2,2.5-1.2,4-1.2,1.9-2.1,2.6-3.2,3.4-.7,.5-1.3,.8-1.8,1,0,.5,0,1.1-.2,1.5h0Z" fill="#fff"/></svg>